HIERARCHY
ROOT root
{
	OFFSET 0.000000 0.000000 0.000000
	CHANNELS 6 Xposition Yposition Zposition Zrotation Yrotation Xrotation
	JOINT lhip
	{
		OFFSET 0.058581 -0.082280 -0.017664
		CHANNELS 3 Zrotation Yrotation Xrotation
		JOINT lknee
		{
			OFFSET 0.043451 -0.386469 0.008037
			CHANNELS 3 Zrotation Yrotation Xrotation
			JOINT lankle
			{
				OFFSET -0.014790 -0.426874 -0.037428
				CHANNELS 3 Zrotation Yrotation Xrotation
				JOINT ltoe
				{
					OFFSET 0.041054 -0.060286 0.122042
					CHANNELS 3 Zrotation Yrotation Xrotation
					End Site
					{
						OFFSET 0.000000 0.000000 0.000000
					}
				}
			}
		}
	}
	JOINT rhip
	{
		OFFSET -0.060310 -0.090513 -0.013543
		CHANNELS 3 Zrotation Yrotation Xrotation
		JOINT rknee
		{
			OFFSET -0.043257 -0.383688 -0.004843
			CHANNELS 3 Zrotation Yrotation Xrotation
			JOINT rankle
			{
				OFFSET 0.019056 -0.420046 -0.034562
				CHANNELS 3 Zrotation Yrotation Xrotation
				JOINT rtoe
				{
					OFFSET -0.034840 -0.062106 0.130323
					CHANNELS 3 Zrotation Yrotation Xrotation
					End Site
					{
						OFFSET 0.000000 0.000000 0.000000
					}
				}
			}
		}
	}
	JOINT lowerback
	{
		OFFSET 0.004439 0.124404 -0.038385
		CHANNELS 3 Zrotation Yrotation Xrotation
		JOINT upperback
		{
			OFFSET 0.004488 0.137956 0.026820
			CHANNELS 3 Zrotation Yrotation Xrotation
			JOINT chest
			{
				OFFSET -0.002265 0.056032 0.002855
				CHANNELS 3 Zrotation Yrotation Xrotation
				JOINT lowerneck
				{
					OFFSET -0.013390 0.211636 -0.033468
					CHANNELS 3 Zrotation Yrotation Xrotation
					JOINT upperneck
					{
						OFFSET 0.010113 0.088937 0.050410
						CHANNELS 3 Zrotation Yrotation Xrotation
						End Site
						{
							OFFSET 0.000000 0.000000 0.000000
						}
					}
				}
				JOINT lclavicle
				{
					OFFSET 0.071702 0.114000 -0.018898
					CHANNELS 3 Zrotation Yrotation Xrotation
					JOINT lshoulder
					{
						OFFSET 0.122921 0.045205 -0.019046
						CHANNELS 3 Zrotation Yrotation Xrotation
						JOINT lelbow
						{
							OFFSET 0.255332 -0.015649 -0.022946
							CHANNELS 3 Zrotation Yrotation Xrotation
							JOINT lwrist
							{
								OFFSET 0.265709 0.012698 -0.007375
								CHANNELS 3 Zrotation Yrotation Xrotation
								End Site
								{
									OFFSET 0.000000 0.000000 0.000000
								}
							}
						}
					}
				}
				JOINT rclavicle
				{
					OFFSET -0.082954 0.112472 -0.023707
					CHANNELS 3 Zrotation Yrotation Xrotation
					JOINT rshoulder
					{
						OFFSET -0.113228 0.046853 -0.008472
						CHANNELS 3 Zrotation Yrotation Xrotation
						JOINT relbow
						{
							OFFSET -0.260127 -0.014369 -0.031269
							CHANNELS 3 Zrotation Yrotation Xrotation
							JOINT rwrist
							{
								OFFSET -0.269108 0.006794 -0.006027
								CHANNELS 3 Zrotation Yrotation Xrotation
								End Site
								{
									OFFSET 0.000000 0.000000 0.000000
								}
							}
						}
					}
				}
			}
		}
	}
}
MOTION
Frames: 7
Frame Time: 0.033333
0.979340 3.024304 0.983801 -41.956942 1.221486 85.466577 2.543316 4.390198 9.528565 -4.814881 -0.577189 -3.914645 3.131728 12.783043 -13.732657 0.000000 -0.000000 0.000000 1.556495 -1.263152 -0.927183 1.401864 -4.244957 15.410567 1.798101 -9.358517 -14.557984 0.000000 -0.000000 0.000000 2.139699 -1.625563 2.595371 0.844157 -1.795193 4.142927 -0.674227 -2.498394 3.424769 3.819962 0.680335 -4.386120 -0.103718 -2.041927 10.161299 -25.771753 3.755679 1.550172 -63.088055 -8.103282 9.367473 10.647953 -24.491638 4.153113 -1.479607 -6.003088 -8.571152 23.726737 0.646015 0.171959 58.404440 5.429256 15.396779 -9.292877 25.027341 -0.376660 4.159240 4.260403 -10.043975 
0.979329 3.024294 0.983710 -41.959486 1.209981 85.491043 2.532476 4.322067 9.488108 -4.824251 -0.539666 -3.918437 3.202839 12.786950 -13.718250 0.000000 -0.000000 0.000000 1.560610 -1.205548 -0.920278 1.482721 -4.058453 15.339378 2.013217 -9.626432 -14.591677 0.000000 -0.000000 0.000000 2.161956 -1.684900 2.637993 0.698260 -1.728620 3.844927 -0.694695 -2.488870 3.728959 3.913892 0.646081 -4.751907 -0.170893 -2.128369 10.786255 -25.426366 3.719360 1.626792 -63.447077 -8.237614 9.385067 10.803171 -24.365087 4.159509 -1.576190 -6.057635 -8.517876 23.618452 0.709427 0.279792 58.621781 5.558854 15.456440 -9.414092 25.023271 -0.608006 4.219376 4.288362 -9.945676 
0.979250 3.024265 0.983736 -42.017356 1.189017 85.518747 2.507166 4.321361 9.470095 -4.822694 -0.523313 -3.943720 3.236540 12.804150 -13.723881 0.000000 -0.000000 0.000000 1.552360 -1.176141 -0.964656 1.475311 -4.047813 15.350392 2.019326 -9.610278 -14.596618 0.000000 -0.000000 0.000000 2.159691 -1.652494 2.630224 0.657864 -1.695304 3.776257 -0.735462 -2.483731 3.763422 3.923455 0.619250 -4.721100 -0.166342 -2.166313 10.844466 -25.347828 3.713015 1.654292 -63.501420 -8.229556 9.409243 10.816055 -24.362983 4.178563 -1.570755 -6.071023 -8.504127 23.569856 0.717131 0.282586 58.694810 5.566694 15.469533 -9.436188 25.001581 -0.583679 4.220127 4.278856 -9.953093 
0.979111 3.024172 0.983702 -42.062279 1.180980 85.520610 2.510021 4.329019 9.474258 -4.829560 -0.500624 -3.949039 3.259093 12.800090 -13.715456 0.000000 -0.000000 0.000000 1.559210 -1.153708 -0.972942 1.468742 -4.040843 15.360163 1.990784 -9.598972 -14.597607 0.000000 -0.000000 0.000000 2.176744 -1.639624 2.603476 0.629804 -1.680570 3.760947 -0.778109 -2.493419 3.792038 3.874000 0.561992 -4.623741 -0.203278 -2.170708 10.863795 -25.301279 3.673298 1.702169 -63.538527 -8.200329 9.416173 10.837972 -24.368934 4.201910 -1.589100 -6.069864 -8.527094 23.474612 0.772707 0.348618 58.744153 5.607821 15.456410 -9.453543 25.032775 -0.567405 4.212752 4.253341 -9.989620 
0.979033 3.024098 0.983687 -42.079300 1.174196 85.516595 2.502084 4.333861 9.479915 -4.825689 -0.501339 -3.944844 3.276627 12.809005 -13.720286 0.000000 -0.000000 0.000000 1.559907 -1.148450 -0.976227 1.461139 -4.033385 15.374011 1.987416 -9.599260 -14.608339 0.000000 -0.000000 0.000000 2.184255 -1.633840 2.594229 0.614387 -1.673308 3.747889 -0.800400 -2.500575 3.818092 3.857229 0.560520 -4.600230 -0.211362 -2.159285 10.881214 -25.280215 3.660932 1.728251 -63.553148 -8.192973 9.420101 10.831756 -24.374305 4.222787 -1.586327 -6.057351 -8.530467 23.437946 0.796489 0.368704 58.737157 5.623745 15.452642 -9.462372 25.045826 -0.564668 4.188497 4.255825 -9.988126 
0.978900 3.023975 0.983683 -42.108947 1.163205 85.498131 2.491648 4.354912 9.516087 -4.824091 -0.497322 -3.950871 3.286549 12.819558 -13.727426 0.000000 -0.000000 0.000000 1.556447 -1.144609 -0.966844 1.447293 -4.018960 15.408046 1.990271 -9.588603 -14.628367 0.000000 -0.000000 0.000000 2.189994 -1.622909 2.613385 0.592710 -1.656315 3.723322 -0.823533 -2.504718 3.830616 3.842124 0.566851 -4.567445 -0.213889 -2.139927 10.906407 -25.246577 3.643725 1.754392 -63.572082 -8.172784 9.427402 10.800981 -24.363499 4.254317 -1.595382 -6.052887 -8.536768 23.398744 0.811117 0.378043 58.724408 5.619190 15.444173 -9.453592 25.050793 -0.562958 4.193485 4.253482 -10.010047 
0.978755 3.023875 0.983679 -42.121863 1.148731 85.498022 2.480109 4.362988 9.526889 -4.825193 -0.504998 -3.947946 3.296220 12.828420 -13.726288 0.000000 -0.000000 0.000000 1.554428 -1.140336 -0.982518 1.431149 -4.008649 15.448707 1.989658 -9.593873 -14.647084 0.000000 -0.000000 0.000000 2.180405 -1.612703 2.620227 0.579271 -1.646469 3.682943 -0.839022 -2.517793 3.834845 3.831318 0.557135 -4.513625 -0.214561 -2.129139 10.929224 -25.218399 3.621801 1.796454 -63.585171 -8.147599 9.438445 10.781461 -24.354698 4.279493 -1.603709 -6.057738 -8.545579 23.361478 0.818821 0.397864 58.705528 5.602966 15.436073 -9.445890 25.049236 -0.557740 4.205258 4.245760 -10.036676 
